HIERARCHY
ROOT Pelvis
{
	OFFSET 0.000000 0.000000 0.000000
	CHANNELS 6 Xposition Yposition Zposition Xrotation Yrotation Zrotation
	JOINT LeftUpLeg_virtual
	{
		OFFSET 0.000000 0.000000 0.000000
		CHANNELS 3 Xrotation Yrotation Zrotation
		JOINT LeftUpLeg
		{
			OFFSET 18.735201 -5.666702 -4.541200
			CHANNELS 3 Xrotation Yrotation Zrotation
			JOINT LeftLeg
			{
				OFFSET -0.021200 -31.938179 0.493100
				CHANNELS 3 Xrotation Yrotation Zrotation
				JOINT LeftFoot
				{
					OFFSET 0.021200 -31.938179 -4.336299
					CHANNELS 3 Xrotation Yrotation Zrotation
					JOINT LeftToeBase
					{
						OFFSET 0.943001 -26.722000 15.023500
						CHANNELS 3 Xrotation Yrotation Zrotation
						End Site
						{
							OFFSET 0 0 0
						}
					}
				}
			}
		}
	}
	JOINT RightUpLeg_virtual
	{
		OFFSET 0.000000 0.000000 0.000000
		CHANNELS 3 Xrotation Yrotation Zrotation
		JOINT RightUpLeg
		{
			OFFSET -18.735201 -5.666702 -4.541200
			CHANNELS 3 Xrotation Yrotation Zrotation
			JOINT RightLeg
			{
				OFFSET 0.018946 -31.938133 0.493100
				CHANNELS 3 Xrotation Yrotation Zrotation
				JOINT RightFoot
				{
					OFFSET -0.018946 -31.938126 -4.336299
					CHANNELS 3 Xrotation Yrotation Zrotation
					JOINT RightToeBase
					{
						OFFSET -0.943001 -26.722004 15.023500
						CHANNELS 3 Xrotation Yrotation Zrotation
						End Site
						{
							OFFSET 0 0 0
						}
					}
				}
			}
		}
	}
	JOINT Hips_virtual
	{
		OFFSET 0.000000 0.000000 0.000000
		CHANNELS 3 Xrotation Yrotation Zrotation
		JOINT Hips
		{
			OFFSET -0.000000 -0.000000 -0.000000
			CHANNELS 3 Xrotation Yrotation Zrotation
			JOINT Spine
			{
				OFFSET 0.000000 10.199997 -0.299500
				CHANNELS 3 Xrotation Yrotation Zrotation
				JOINT Spine1
				{
					OFFSET 0.000000 11.900002 -1.516600
					CHANNELS 3 Xrotation Yrotation Zrotation
					JOINT Spine2
					{
						OFFSET 0.000000 13.600006 -2.842500
						CHANNELS 3 Xrotation Yrotation Zrotation
						JOINT Neck_virtual
						{
							OFFSET 0.000000 0.000000 0.000000
							CHANNELS 3 Xrotation Yrotation Zrotation
							JOINT Neck
							{
								OFFSET 0.000000 9.624100 -2.890100
								CHANNELS 3 Xrotation Yrotation Zrotation
								JOINT Head
								{
									OFFSET 0.000000 14.068802 -1.351900
									CHANNELS 3 Xrotation Yrotation Zrotation
									End Site
									{
										OFFSET 0 0 0
									}
								}
							}
						}
						JOINT LeftShoulder_virtual
						{
							OFFSET 0.000000 0.000000 0.000000
							CHANNELS 3 Xrotation Yrotation Zrotation
							JOINT LeftShoulder
							{
								OFFSET 15.263000 10.923401 -0.547700
								CHANNELS 3 Xrotation Yrotation Zrotation
								JOINT LeftArm
								{
									OFFSET 25.438599 -2.830597 -13.032500
									CHANNELS 3 Xrotation Yrotation Zrotation
									JOINT LeftForeArm
									{
										OFFSET 29.960503 0.000000 0.000000
										CHANNELS 3 Xrotation Yrotation Zrotation
										JOINT LeftHand
										{
											OFFSET 27.849251 0.000000 0.000000
											CHANNELS 3 Xrotation Yrotation Zrotation
											End Site
											{
												OFFSET 0 0 0
											}
										}
									}
								}
							}
						}
						JOINT RightShoulder_virtual
						{
							OFFSET 0.000000 0.000000 0.000000
							CHANNELS 3 Xrotation Yrotation Zrotation
							JOINT RightShoulder
							{
								OFFSET -15.263000 10.923401 -0.547700
								CHANNELS 3 Xrotation Yrotation Zrotation
								JOINT RightArm
								{
									OFFSET -25.438599 -2.830597 -13.032500
									CHANNELS 3 Xrotation Yrotation Zrotation
									JOINT RightForeArm
									{
										OFFSET -29.960503 0.000000 0.000000
										CHANNELS 3 Xrotation Yrotation Zrotation
										JOINT RightHand
										{
											OFFSET -27.849251 0.000000 0.000000
											CHANNELS 3 Xrotation Yrotation Zrotation
											End Site
											{
												OFFSET 0 0 0
											}
										}
									}
								}
							}
						}
					}
				}
			}
		}
	}
}
MOTION
Frames: 5
Frame Time: 0.03333333
1.275090 77.835289 4.589535 0.000000 0.000000 0.000000 0.795299 -27.891147 7.447229 -49.137603 0.144343 25.091443 53.015481 -3.184139 -3.219423 -0.935862 -1.768865 -13.908149 0.000000 0.000000 0.000000 -3.327094 -23.312870 -4.496287 -40.298775 -6.647064 -24.091730 50.380438 3.366296 -1.425944 -6.636668 0.793789 11.966747 0.000000 0.000000 0.000000 8.166143 -12.310531 3.965117 22.363028 -9.591108 4.680105 16.751614 2.478440 -1.790390 8.392473 1.104849 -1.067631 0.000000 0.000000 0.000000 5.174597 1.889955 -2.840020 0.483183 1.003196 -1.158523 0.000000 0.000000 0.000000 9.135699 1.446116 1.202606 4.599716 -4.188336 2.244211 -46.851894 -12.953476 -62.469750 -60.755919 -78.954876 -59.079593 0.000000 0.000000 0.000000 9.661331 2.147071 -0.771719 6.431662 10.648723 0.934623 -34.621143 26.714623 48.370228 -65.065830 84.697658 63.380652 0.000000 0.000000 0.000000 
1.253617 77.934174 4.723068 0.000000 0.000000 0.000000 0.787350 -27.746018 7.412086 -49.122994 0.190219 25.074675 52.850754 -3.202482 -3.237793 -1.081191 -1.765283 -13.923416 0.000000 0.000000 0.000000 -3.189458 -23.502435 -4.403601 -40.152763 -6.757955 -24.018903 50.263669 3.381565 -1.566446 -6.724427 0.875708 11.759473 0.000000 0.000000 0.000000 8.096239 -12.542607 3.948621 22.314961 -9.697309 4.615444 16.757186 2.399290 -1.815839 8.403148 1.060862 -1.091291 0.000000 0.000000 0.000000 5.200723 1.816528 -2.823567 0.457639 1.004740 -1.152625 0.000000 0.000000 0.000000 9.106240 1.386861 1.183705 4.555226 -4.014511 1.975214 -46.374580 -12.813329 -62.913624 -61.189356 -78.980414 -59.615291 0.000000 0.000000 0.000000 9.641785 2.103793 -0.757315 6.336310 10.408365 1.175812 -34.598706 27.005460 49.070914 -82.900663 85.226192 81.324426 0.000000 0.000000 0.000000 
1.232234 78.007317 4.826441 0.000000 0.000000 0.000000 0.787869 -27.640556 7.410358 -49.111594 0.214743 25.082692 52.727862 -3.220041 -3.260012 -1.199633 -1.760291 -13.948214 0.000000 0.000000 0.000000 -3.082987 -23.665625 -4.304336 -40.051659 -6.854053 -23.939413 50.204500 3.416609 -1.684882 -6.775325 0.967296 11.604503 0.000000 0.000000 0.000000 8.034421 -12.768229 3.940358 22.339143 -9.784597 4.588964 16.776953 2.314615 -1.838387 8.419254 1.013731 -1.111586 0.000000 0.000000 0.000000 5.211129 1.741448 -2.805871 0.427817 1.005790 -1.146522 0.000000 0.000000 0.000000 9.083090 1.327916 1.159536 4.515758 -3.844339 1.690604 -45.916626 -12.670809 -63.315751 -61.290095 -78.967615 -59.815559 0.000000 0.000000 0.000000 9.607534 2.055251 -0.749342 6.234423 10.158131 1.369859 -34.599399 27.200926 49.769485 -101.655392 85.203147 100.183220 0.000000 0.000000 0.000000 
1.208394 78.053345 4.910780 0.000000 0.000000 0.000000 0.796423 -27.575297 7.441140 -49.101854 0.217905 25.114145 52.637587 -3.237430 -3.283249 -1.296880 -1.755571 -13.978270 0.000000 0.000000 0.000000 -3.023738 -23.833344 -4.233932 -40.005596 -6.930825 -23.883659 50.186485 3.454136 -1.792053 -6.802311 1.056917 11.471315 0.000000 0.000000 0.000000 7.990065 -12.980640 3.946595 22.488079 -9.825283 4.643883 16.803664 2.228534 -1.855709 8.437203 0.965431 -1.127423 0.000000 0.000000 0.000000 5.197507 1.673799 -2.780551 0.390166 1.010915 -1.136409 0.000000 0.000000 0.000000 9.064477 1.271923 1.132562 4.479799 -3.673512 1.400970 -45.482387 -12.530472 -63.645718 -61.018444 -78.921538 -59.629102 0.000000 0.000000 0.000000 9.567507 2.006132 -0.743374 6.132322 9.912031 1.538578 -34.589301 27.330059 50.434646 -117.234706 84.742526 115.864160 0.000000 0.000000 0.000000 
1.177585 78.069580 4.974560 0.000000 0.000000 0.000000 0.822117 -27.552174 7.504646 -49.084868 0.202168 25.168146 52.586890 -3.257684 -3.306823 -1.366921 -1.755040 -14.014928 0.000000 0.000000 0.000000 -2.986767 -23.979819 -4.175533 -39.989443 -6.991283 -23.839710 50.230984 3.509196 -1.882639 -6.790039 1.157208 11.381150 0.000000 0.000000 0.000000 7.963870 -13.170541 3.968224 22.753937 -9.803066 4.790241 16.837461 2.145091 -1.866123 8.457364 0.917852 -1.138135 0.000000 0.000000 0.000000 5.171292 1.614500 -2.750777 0.350231 1.020082 -1.123732 0.000000 0.000000 0.000000 9.052523 1.219144 1.103642 4.449155 -3.505013 1.109665 -45.063764 -12.405813 -63.916337 -60.523379 -78.864281 -59.208929 0.000000 0.000000 0.000000 9.528495 1.959547 -0.735943 6.034541 9.679962 1.699540 -34.541503 27.409664 51.051498 -128.478181 84.050573 127.211098 0.000000 0.000000 0.000000 
